HIERARCHY
ROOT Hips
{
	OFFSET 0.000000 87.230942 0.000000
	CHANNELS 6 Xposition Yposition Zposition Xrotation Yrotation Zrotation
	JOINT Pelvis
	{
		OFFSET 0.000000 0.000000 0.000000
		CHANNELS 3 Xrotation Yrotation Zrotation
		JOINT LeftUpLeg
		{
			OFFSET 12.017000 -9.376404 -2.439400
			CHANNELS 3 Xrotation Yrotation Zrotation
			JOINT LeftLeg
			{
				OFFSET -0.007312 -32.846973 2.110600
				CHANNELS 3 Xrotation Yrotation Zrotation
				JOINT LeftFoot
				{
					OFFSET 0.007312 -32.065170 -0.570400
					CHANNELS 3 Xrotation Yrotation Zrotation
					JOINT LeftToeBase
					{
						OFFSET 0.728300 -11.045900 13.180700
						CHANNELS 3 Xrotation Yrotation Zrotation
						End Site
						{
							OFFSET 0.000000 17.212589 0.000000
						}
					}
				}
				JOINT LeftPantLeg
				{
					OFFSET 0.002788 -16.709013 -3.143600
					CHANNELS 3 Xrotation Yrotation Zrotation
					End Site
					{
						OFFSET -0.605125 24.528742 0.000000
					}
				}
			}
			JOINT Left_Butt
			{
				OFFSET -6.630234 1.326584 -3.183700
				CHANNELS 3 Xrotation Yrotation Zrotation
				End Site
				{
					OFFSET -0.498041 20.188049 0.000000
				}
			}
		}
		JOINT RightUpLeg
		{
			OFFSET -11.717000 -9.376404 -2.439400
			CHANNELS 3 Xrotation Yrotation Zrotation
			JOINT RightLeg
			{
				OFFSET -0.003241 -32.846912 2.110600
				CHANNELS 3 Xrotation Yrotation Zrotation
				JOINT RightFoot
				{
					OFFSET 0.003241 -32.065136 -0.570500
					CHANNELS 3 Xrotation Yrotation Zrotation
					JOINT RightToeBase
					{
						OFFSET -0.728300 -11.045901 13.180700
						CHANNELS 3 Xrotation Yrotation Zrotation
						End Site
						{
							OFFSET 0.000000 17.212593 0.000000
						}
					}
				}
				JOINT RightPantLeg
				{
					OFFSET 0.008142 -16.708982 -3.143700
					CHANNELS 3 Xrotation Yrotation Zrotation
					End Site
					{
						OFFSET 0.605088 24.528715 0.000000
					}
				}
			}
			JOINT Right_Butt
			{
				OFFSET 6.630732 1.326584 -3.183700
				CHANNELS 3 Xrotation Yrotation Zrotation
				End Site
				{
					OFFSET 0.498015 20.188240 0.000000
				}
			}
		}
	}
	JOINT Spine
	{
		OFFSET -0.062400 7.848404 3.918300
		CHANNELS 3 Xrotation Yrotation Zrotation
		JOINT Spine1
		{
			OFFSET -0.072800 11.422302 0.713400
			CHANNELS 3 Xrotation Yrotation Zrotation
			JOINT Spine2
			{
				OFFSET -0.083200 13.054001 -1.931600
				CHANNELS 3 Xrotation Yrotation Zrotation
				JOINT Neck
				{
					OFFSET -0.092200 14.121796 -5.138800
					CHANNELS 3 Xrotation Yrotation Zrotation
					JOINT Head
					{
						OFFSET 0.000200 10.447403 -0.842000
						CHANNELS 3 Xrotation Yrotation Zrotation
						JOINT Visor
						{
							OFFSET 0.457100 25.671204 16.550400
							CHANNELS 3 Xrotation Yrotation Zrotation
							End Site
							{
								OFFSET 0.000000 26.061493 0.000000
							}
						}
						JOINT HairMidA
						{
							OFFSET 0.459400 31.585403 8.437400
							CHANNELS 3 Xrotation Yrotation Zrotation
							End Site
							{
								OFFSET 0.000000 26.061493 0.000000
							}
						}
						JOINT HairMidB
						{
							OFFSET 0.464000 33.309204 -8.389700
							CHANNELS 3 Xrotation Yrotation Zrotation
							End Site
							{
								OFFSET 0.000000 26.061493 0.000000
							}
						}
						JOINT HairMidC
						{
							OFFSET 0.466600 27.991196 -17.375099
							CHANNELS 3 Xrotation Yrotation Zrotation
							End Site
							{
								OFFSET 0.000000 26.061493 0.000000
							}
						}
						JOINT HairMidD
						{
							OFFSET 0.467700 17.888092 -21.169500
							CHANNELS 3 Xrotation Yrotation Zrotation
							End Site
							{
								OFFSET 0.000000 26.061493 0.000000
							}
						}
						JOINT HairMidE
						{
							OFFSET 5.325700 3.514603 -14.369699
							CHANNELS 3 Xrotation Yrotation Zrotation
							End Site
							{
								OFFSET 0.000000 26.061493 0.000000
							}
						}
						JOINT HairMidF
						{
							OFFSET -4.394100 3.514603 -14.372400
							CHANNELS 3 Xrotation Yrotation Zrotation
							End Site
							{
								OFFSET 0.000000 26.061493 0.000000
							}
						}
						JOINT HairLeftA
						{
							OFFSET 15.319900 25.746506 2.623300
							CHANNELS 3 Xrotation Yrotation Zrotation
							End Site
							{
								OFFSET 0.000000 26.061493 0.000000
							}
						}
						JOINT HairLeftB
						{
							OFFSET 12.619500 29.289398 -8.731499
							CHANNELS 3 Xrotation Yrotation Zrotation
							End Site
							{
								OFFSET 0.000000 26.061493 0.000000
							}
						}
						JOINT HairLeftC
						{
							OFFSET 15.714800 15.959900 2.909800
							CHANNELS 3 Xrotation Yrotation Zrotation
							End Site
							{
								OFFSET 0.000000 26.061493 0.000000
							}
						}
						JOINT HairLeftD
						{
							OFFSET 16.101700 18.437408 -7.553200
							CHANNELS 3 Xrotation Yrotation Zrotation
							End Site
							{
								OFFSET 0.000000 26.061493 0.000000
							}
						}
						JOINT HairLeftE
						{
							OFFSET 9.731900 17.915009 -18.316799
							CHANNELS 3 Xrotation Yrotation Zrotation
							End Site
							{
								OFFSET 0.000000 26.061493 0.000000
							}
						}
						JOINT HairLeftF
						{
							OFFSET 11.204300 4.953598 -9.668100
							CHANNELS 3 Xrotation Yrotation Zrotation
							End Site
							{
								OFFSET 0.000000 26.061493 0.000000
							}
						}
						JOINT HairRightA
						{
							OFFSET -14.397900 25.746307 2.615100
							CHANNELS 3 Xrotation Yrotation Zrotation
							End Site
							{
								OFFSET 0.000000 26.061493 0.000000
							}
						}
						JOINT HairRightB
						{
							OFFSET -11.691200 29.289200 -8.738199
							CHANNELS 3 Xrotation Yrotation Zrotation
							End Site
							{
								OFFSET 0.000000 26.061493 0.000000
							}
						}
						JOINT HairRightC
						{
							OFFSET -14.792900 15.959702 2.901400
							CHANNELS 3 Xrotation Yrotation Zrotation
							End Site
							{
								OFFSET 0.000000 26.061493 0.000000
							}
						}
						JOINT HairRightD
						{
							OFFSET -15.174000 18.437195 -7.561900
							CHANNELS 3 Xrotation Yrotation Zrotation
							End Site
							{
								OFFSET 0.000000 26.061493 0.000000
							}
						}
						JOINT HairRightE
						{
							OFFSET -8.798200 17.914902 -18.322001
							CHANNELS 3 Xrotation Yrotation Zrotation
							End Site
							{
								OFFSET 0.000000 26.061493 0.000000
							}
						}
						JOINT HairRightF
						{
							OFFSET -10.275200 4.953506 -9.674099
							CHANNELS 3 Xrotation Yrotation Zrotation
							End Site
							{
								OFFSET 0.000000 26.061493 0.000000
							}
						}
					}
				}
				JOINT LeftShoulder
				{
					OFFSET 5.133500 7.341202 -1.867600
					CHANNELS 3 Xrotation Yrotation Zrotation
					JOINT LeftArm
					{
						OFFSET 8.072663 0.936867 -2.176600
						CHANNELS 3 Xrotation Yrotation Zrotation
						JOINT LeftForeArm
						{
							OFFSET 31.271999 0.000000 0.000000
							CHANNELS 3 Xrotation Yrotation Zrotation
							JOINT LeftHand
							{
								OFFSET 31.771030 0.000000 0.000000
								CHANNELS 3 Xrotation Yrotation Zrotation
								JOINT LeftHandThumb1
								{
									OFFSET 2.886520 -2.557846 4.416640
									CHANNELS 3 Xrotation Yrotation Zrotation
									JOINT LeftHandThumb2
									{
										OFFSET 2.371025 -1.368912 1.368911
										CHANNELS 3 Xrotation Yrotation Zrotation
										JOINT LeftHandThumb3
										{
											OFFSET 2.243378 -1.295212 1.295213
											CHANNELS 3 Xrotation Yrotation Zrotation
											End Site
											{
												OFFSET -0.332611 2.876945 0.020015
											}
										}
									}
								}
								JOINT LeftHandIndex1
								{
									OFFSET 8.568985 -0.641945 3.119977
									CHANNELS 3 Xrotation Yrotation Zrotation
									JOINT LeftHandIndex2
									{
										OFFSET 3.348503 0.000000 0.000000
										CHANNELS 3 Xrotation Yrotation Zrotation
										JOINT LeftHandIndex3
										{
											OFFSET 3.314552 0.000000 0.000000
											CHANNELS 3 Xrotation Yrotation Zrotation
											End Site
											{
												OFFSET -1.032898 3.075485 0.678796
											}
										}
									}
								}
								JOINT LeftHandMiddle1
								{
									OFFSET 8.124603 0.000000 0.000000
									CHANNELS 3 Xrotation Yrotation Zrotation
									JOINT LeftHandMiddle2
									{
										OFFSET 4.166275 0.000000 0.000000
										CHANNELS 3 Xrotation Yrotation Zrotation
										JOINT LeftHandMiddle3
										{
											OFFSET 3.018135 0.000000 0.000000
											CHANNELS 3 Xrotation Yrotation Zrotation
											End Site
											{
												OFFSET -1.032700 2.767982 0.617226
											}
										}
									}
								}
								JOINT LeftHandRing1
								{
									OFFSET 8.571686 -0.031357 -2.884048
									CHANNELS 3 Xrotation Yrotation Zrotation
									JOINT LeftHandRing2
									{
										OFFSET 3.671181 0.000000 0.000000
										CHANNELS 3 Xrotation Yrotation Zrotation
										JOINT LeftHandRing3
										{
											OFFSET 2.728851 0.000000 0.000000
											CHANNELS 3 Xrotation Yrotation Zrotation
											End Site
											{
												OFFSET -0.815796 2.539223 0.577389
											}
										}
									}
								}
								JOINT LeftHandPinky1
								{
									OFFSET 7.854515 -0.675232 -5.213020
									CHANNELS 3 Xrotation Yrotation Zrotation
									JOINT LeftHandPinky2
									{
										OFFSET 3.068596 0.000000 0.000000
										CHANNELS 3 Xrotation Yrotation Zrotation
										JOINT LeftHandPinky3
										{
											OFFSET 2.396042 0.000000 0.000000
											CHANNELS 3 Xrotation Yrotation Zrotation
											End Site
											{
												OFFSET -0.524597 2.267998 0.567429
											}
										}
									}
								}
							}
							JOINT LeftSleeve
							{
								OFFSET 19.684509 -0.200119 0.476146
								CHANNELS 3 Xrotation Yrotation Zrotation
								End Site
								{
									OFFSET -0.031017 25.731133 -0.002868
								}
							}
						}
					}
				}
				JOINT RightShoulder
				{
					OFFSET -4.395900 7.341202 -1.870200
					CHANNELS 3 Xrotation Yrotation Zrotation
					JOINT RightArm
					{
						OFFSET -8.071453 0.936867 -2.181100
						CHANNELS 3 Xrotation Yrotation Zrotation
						JOINT RightForeArm
						{
							OFFSET -31.272011 0.000000 0.000000
							CHANNELS 3 Xrotation Yrotation Zrotation
							JOINT RightHand
							{
								OFFSET -31.771019 0.000000 0.000000
								CHANNELS 3 Xrotation Yrotation Zrotation
								JOINT RightHandThumb1
								{
									OFFSET -2.886520 -2.557808 4.416626
									CHANNELS 3 Xrotation Yrotation Zrotation
									JOINT RightHandThumb2
									{
										OFFSET -2.371056 -1.368927 1.368928
										CHANNELS 3 Xrotation Yrotation Zrotation
										JOINT RightHandThumb3
										{
											OFFSET -2.243362 -1.295204 1.295206
											CHANNELS 3 Xrotation Yrotation Zrotation
											End Site
											{
												OFFSET 0.332642 2.876938 0.020047
											}
										}
									}
								}
								JOINT RightHandIndex1
								{
									OFFSET -8.568993 -0.641953 3.120017
									CHANNELS 3 Xrotation Yrotation Zrotation
									JOINT RightHandIndex2
									{
										OFFSET -3.348518 0.000000 0.000000
										CHANNELS 3 Xrotation Yrotation Zrotation
										JOINT RightHandIndex3
										{
											OFFSET -3.314552 0.000000 0.000000
											CHANNELS 3 Xrotation Yrotation Zrotation
											End Site
											{
												OFFSET 1.032898 3.075478 0.678804
											}
										}
									}
								}
								JOINT RightHandMiddle1
								{
									OFFSET -8.124588 0.000000 0.000000
									CHANNELS 3 Xrotation Yrotation Zrotation
									JOINT RightHandMiddle2
									{
										OFFSET -4.166275 0.000000 0.000000
										CHANNELS 3 Xrotation Yrotation Zrotation
										JOINT RightHandMiddle3
										{
											OFFSET -3.018097 0.000000 0.000000
											CHANNELS 3 Xrotation Yrotation Zrotation
											End Site
											{
												OFFSET 1.032700 2.767937 0.617197
											}
										}
									}
								}
								JOINT RightHandRing1
								{
									OFFSET -8.571747 -0.031349 -2.884061
									CHANNELS 3 Xrotation Yrotation Zrotation
									JOINT RightHandRing2
									{
										OFFSET -3.671204 0.000000 0.000000
										CHANNELS 3 Xrotation Yrotation Zrotation
										JOINT RightHandRing3
										{
											OFFSET -2.728874 0.000000 0.000000
											CHANNELS 3 Xrotation Yrotation Zrotation
											End Site
											{
												OFFSET 0.815804 2.539261 0.577413
											}
										}
									}
								}
								JOINT RightHandPinky1
								{
									OFFSET -7.854561 -0.675247 -5.212970
									CHANNELS 3 Xrotation Yrotation Zrotation
									JOINT RightHandPinky2
									{
										OFFSET -3.068550 0.000000 0.000000
										CHANNELS 3 Xrotation Yrotation Zrotation
										JOINT RightHandPinky3
										{
											OFFSET -2.395981 0.000000 0.000000
											CHANNELS 3 Xrotation Yrotation Zrotation
											End Site
											{
												OFFSET 0.524605 2.267952 0.567413
											}
										}
									}
								}
							}
							JOINT RightSleeve
							{
								OFFSET -19.684753 -0.200165 0.476065
								CHANNELS 3 Xrotation Yrotation Zrotation
								End Site
								{
									OFFSET 0.031342 25.731255 -0.002917
								}
							}
						}
					}
				}
				JOINT Hood
				{
					OFFSET 0.369700 14.447800 -5.317800
					CHANNELS 3 Xrotation Yrotation Zrotation
					JOINT Hood1
					{
						OFFSET 0.001700 -5.553802 -5.895100
						CHANNELS 3 Xrotation Yrotation Zrotation
						JOINT Hood2
						{
							OFFSET -0.000200 -8.380501 0.763600
							CHANNELS 3 Xrotation Yrotation Zrotation
							End Site
							{
								OFFSET 0.000000 8.415215 0.000000
							}
						}
					}
				}
				JOINT Left_Breast
				{
					OFFSET 5.682500 3.120102 3.188800
					CHANNELS 3 Xrotation Yrotation Zrotation
					End Site
					{
						OFFSET 0.000000 10.528564 0.000000
					}
				}
				JOINT Right_Breast
				{
					OFFSET -4.947600 3.120102 3.185900
					CHANNELS 3 Xrotation Yrotation Zrotation
					End Site
					{
						OFFSET 0.000000 10.528564 0.000000
					}
				}
				JOINT Whistle
				{
					OFFSET 0.368200 11.471298 0.095400
					CHANNELS 3 Xrotation Yrotation Zrotation
					JOINT Whistle1
					{
						OFFSET -0.002000 -6.349899 7.479800
						CHANNELS 3 Xrotation Yrotation Zrotation
						JOINT Whistle2
						{
							OFFSET -0.001300 -8.217598 4.717600
							CHANNELS 3 Xrotation Yrotation Zrotation
							End Site
							{
								OFFSET 0.000000 9.475479 0.000000
							}
						}
					}
				}
			}
		}
		JOINT Belly
		{
			OFFSET 0.212400 1.593002 3.163700
			CHANNELS 3 Xrotation Yrotation Zrotation
			End Site
			{
				OFFSET 0.000000 7.496635 0.000000
			}
		}
	}
	JOINT FitGrandmaFacialAnim_Joint
	{
		OFFSET 1.150000 -86.211197 -1.220100
		CHANNELS 3 Xrotation Yrotation Zrotation
		End Site
		{
			OFFSET 0.000000 31.666618 0.000000
		}
	}
}
MOTION
Frames: 4
Frame Time: 0.016667
2.644822 78.779922 -26.309240 17.408096 0.634067 0.219496 0.000001 -0.000000 0.000000 -40.242583 12.326751 -8.873490 52.353352 11.607629 -9.752533 -22.583631 28.721437 8.858225 0.000000 0.000002 -0.000001 -0.000001 0.000001 -0.000001 -0.000000 0.000001 -0.000001 4.568238 -2.085777 11.900708 16.555769 -11.234415 0.591350 -30.960264 -10.770094 -9.834721 -0.000000 -0.000002 0.000001 -0.000000 0.000000 -0.000001 0.000002 0.000000 -0.000001 0.283646 -0.665376 -0.191540 0.653933 -1.830908 -1.052587 0.655742 -1.831693 -1.049994 -2.996390 1.119227 0.316272 -6.032482 6.098676 -0.632911 -0.000000 0.000000 0.000000 -0.000000 0.000000 0.000000 -0.000000 0.000000 0.000000 -0.000000 0.000000 0.000000 -0.000000 0.000000 0.000000 -0.000000 0.000000 0.000000 -0.000000 0.000000 0.000000 -0.000000 0.000000 0.000000 -0.000000 0.000000 0.000000 -0.000000 0.000000 0.000000 -0.000000 0.000000 0.000000 -0.000000 0.000000 0.000000 -0.000000 0.000000 0.000000 -0.000000 0.000000 0.000000 -0.000000 0.000000 0.000000 -0.000000 0.000000 0.000000 -0.000000 0.000000 0.000000 -0.000000 0.000000 0.000000 -0.000000 0.000000 0.000000 0.085447 3.935088 -2.580512 -56.776221 -47.958802 -86.499578 0.000240 -99.510030 0.000252 30.651464 -40.355831 1.595639 -1.514511 3.689243 6.142657 3.939054 7.948692 0.746808 0.000000 -0.000000 0.000001 -0.000006 -0.000053 0.000434 -0.000004 -0.000005 -0.000006 -0.000000 -0.000000 -0.000001 -0.000001 -0.001982 0.016414 0.000000 0.001936 -0.015988 -0.000000 0.000000 0.000000 -0.000000 -0.000051 0.000429 0.000005 0.000006 0.000006 0.000001 -0.000001 0.000000 -0.018134 4.054197 0.511500 -0.018096 -4.054241 -0.511062 0.000000 0.000001 -0.000002 0.000002 -0.000001 0.000003 0.341128 -4.421371 7.505367 11.665814 -24.096279 54.698422 -0.000003 14.091766 0.000007 26.699570 -41.006878 9.432720 -1.738585 -3.581786 -6.586128 4.637199 -8.634133 -0.225407 0.000000 0.000001 0.000000 0.000002 0.000004 0.000004 -0.000004 0.000001 -0.000002 -0.000001 -0.000000 0.000001 -0.000002 0.000006 -0.000004 -0.000004 0.000004 -0.000011 -0.000000 -0.000001 0.000001 0.000008 0.000004 0.000002 0.000001 -0.000004 0.000003 -0.000001 0.000002 0.000001 0.000012 -0.000002 0.000002 -0.000002 0.000006 0.000085 -0.000000 -0.000000 -0.000002 0.000001 -0.000002 -0.000002 0.000002 0.000000 0.000000 0.000002 0.000000 0.000000 0.000002 0.000000 0.000000 0.000002 0.000000 0.000000 0.000002 0.000000 0.000000 0.000002 0.000000 0.000000 -0.000000 0.000000 -0.000000 -0.000000 0.000000 -0.000000 0.000001 -0.000000 0.000000 0.000001 -0.000000 0.000000 
2.709002 77.887260 -27.085117 17.861059 -0.875830 0.341622 -0.000001 -0.000000 0.000000 -41.404303 12.722563 -8.642697 53.578773 12.107533 -9.760956 -26.651502 28.129113 10.441451 -0.000000 0.000003 -0.000001 0.000001 -0.000001 0.000003 -0.000000 -0.000001 0.000000 5.019116 -1.160142 12.155321 14.810345 -10.730104 -0.131401 -34.702572 -9.202170 -10.913025 -0.000000 0.000001 -0.000001 0.000004 0.000001 -0.000001 -0.000000 0.000000 0.000001 0.374911 -0.576394 -0.058816 0.839428 -1.490122 -1.005000 0.841786 -1.490086 -1.003032 -3.381187 1.278225 -0.024141 -7.092500 6.514984 -1.017366 0.000001 0.000001 -0.000000 0.000001 0.000001 -0.000000 0.000001 0.000001 -0.000000 0.000001 0.000001 -0.000000 0.000001 0.000001 -0.000000 0.000001 0.000001 -0.000000 0.000001 0.000001 -0.000000 0.000001 0.000001 -0.000000 0.000001 0.000001 -0.000000 0.000001 0.000001 -0.000000 0.000001 0.000001 -0.000000 0.000001 0.000001 -0.000000 0.000001 0.000001 -0.000000 0.000001 0.000001 -0.000000 0.000001 0.000001 -0.000000 0.000001 0.000001 -0.000000 0.000001 0.000001 -0.000000 0.000001 0.000001 -0.000000 0.000001 0.000001 -0.000000 0.066344 4.092693 -2.749981 -57.966852 -48.075144 -87.079803 0.000590 -99.827087 0.000590 31.096588 -40.241569 3.113305 -1.513100 3.689498 6.142556 3.939056 7.948692 0.746802 -0.000000 0.000000 -0.000003 0.000003 -0.000034 0.000289 -0.000003 -0.000006 -0.000008 -0.000002 0.000003 -0.000002 0.000001 -0.001962 0.016280 0.000000 0.001935 -0.015983 -0.000001 0.000000 0.000000 0.000005 -0.000034 0.000291 0.000004 0.000010 0.000003 0.000000 -0.000001 0.000001 -0.018115 4.054217 0.511358 -0.018100 -4.054242 -0.511060 -0.000001 0.000002 -0.000002 -0.000000 0.000000 -0.000000 0.357818 -4.128329 7.237576 10.151504 -21.429748 54.766547 -0.000003 14.120299 -0.000001 21.523104 -41.883277 3.636414 -1.739445 -3.581788 -6.586147 4.637202 -8.634132 -0.225405 -0.000001 -0.000000 0.000001 0.000011 -0.000003 0.000008 -0.000004 0.000004 -0.000005 -0.000002 -0.000002 0.000001 -0.000004 0.000008 -0.000003 -0.000003 0.000004 -0.000008 0.000001 0.000000 -0.000002 0.000004 0.000002 -0.000001 0.000005 -0.000010 0.000008 -0.000003 0.000002 0.000001 -0.000004 -0.000001 -0.000003 -0.000003 0.000005 0.000086 -0.000001 -0.000001 -0.000001 0.000001 0.000002 0.000001 0.000001 0.000000 0.000000 0.000001 0.000000 0.000000 0.000001 0.000000 0.000000 0.000001 0.000000 0.000000 0.000001 0.000000 0.000000 0.000001 0.000000 0.000000 -0.000001 0.000001 -0.000000 -0.000001 0.000001 -0.000000 0.000001 0.000000 -0.000000 -0.000001 -0.000000 0.000000 
2.749808 77.331726 -27.669178 18.243171 -2.338163 0.518635 0.000000 0.000000 0.000000 -42.056859 13.143962 -8.320358 54.087329 12.606169 -9.753414 -29.440192 27.548390 11.449714 0.000002 -0.000004 0.000001 0.000001 -0.000002 0.000001 0.000000 0.000001 -0.000000 4.404053 -0.621463 12.021918 15.055217 -10.451307 -0.728068 -37.083249 -7.789836 -10.626022 0.000000 -0.000002 -0.000000 -0.000001 0.000001 -0.000001 0.000003 0.000001 0.000001 0.487942 -0.490162 0.082159 1.063931 -1.195068 -0.944048 1.066420 -1.193945 -0.942641 -3.717270 1.476828 -0.421960 -7.822807 7.031211 -1.337921 -0.000000 -0.000001 -0.000000 -0.000000 -0.000001 -0.000000 -0.000000 -0.000001 -0.000000 -0.000000 -0.000001 -0.000000 -0.000000 -0.000001 -0.000000 -0.000000 -0.000001 -0.000000 -0.000000 -0.000001 -0.000000 -0.000000 -0.000001 -0.000000 -0.000000 -0.000001 -0.000000 -0.000000 -0.000001 -0.000000 -0.000000 -0.000001 -0.000000 -0.000000 -0.000001 -0.000000 -0.000000 -0.000001 -0.000000 -0.000000 -0.000001 -0.000000 -0.000000 -0.000001 -0.000000 -0.000000 -0.000001 -0.000000 -0.000000 -0.000001 -0.000000 -0.000000 -0.000001 -0.000000 -0.000000 -0.000001 -0.000000 0.049185 4.276956 -3.011936 -58.871149 -48.137305 -87.986797 0.000102 -99.805053 0.000111 31.520701 -40.160904 4.450609 -1.511680 3.689920 6.142446 3.939055 7.948687 0.746803 0.000000 0.000000 -0.000002 0.000001 -0.000015 0.000105 -0.000003 -0.000004 -0.000007 0.000001 0.000001 0.000001 0.000004 -0.001939 0.016097 0.000002 0.001932 -0.015987 0.000001 0.000000 -0.000007 0.000003 -0.000018 0.000118 0.000003 0.000008 0.000004 0.000000 0.000002 -0.000003 -0.018102 4.054240 0.511176 -0.018097 -4.054241 -0.511062 0.000001 0.000003 -0.000005 -0.000001 -0.000001 -0.000000 0.384404 -3.724220 6.943324 8.764598 -19.063039 55.509938 0.000003 13.884455 0.000004 18.001010 -41.050229 -0.615187 -1.740318 -3.581782 -6.586141 4.637200 -8.634132 -0.225409 0.000001 0.000001 -0.000000 -0.000007 0.000005 -0.000002 -0.000006 0.000001 -0.000006 0.000000 0.000001 0.000001 -0.000002 0.000007 0.000001 -0.000005 0.000001 -0.000007 0.000001 -0.000000 -0.000004 0.000003 -0.000005 0.000007 0.000004 -0.000003 0.000006 -0.000000 -0.000002 -0.000001 0.000005 -0.000003 0.000006 -0.000006 0.000006 0.000086 0.000001 0.000003 -0.000003 0.000001 0.000003 -0.000001 -0.000001 -0.000000 -0.000000 -0.000001 -0.000000 -0.000000 -0.000001 -0.000000 -0.000000 -0.000001 -0.000000 -0.000000 -0.000001 -0.000000 -0.000000 -0.000001 -0.000000 -0.000000 -0.000002 0.000000 0.000000 -0.000002 0.000000 0.000000 0.000001 -0.000000 0.000000 0.000000 0.000000 0.000000 
2.739202 77.220428 -28.010723 18.508773 -3.494312 0.775061 -0.000001 -0.000000 0.000000 -42.154319 13.515266 -8.047622 53.779059 12.921514 -9.733294 -30.494404 27.176933 11.848888 -0.000000 0.000000 0.000000 0.000003 0.000001 0.000001 0.000001 0.000000 0.000000 3.348006 -0.366014 11.694185 16.157005 -10.378766 -1.139292 -37.824450 -6.988718 -9.671106 0.000000 0.000003 0.000000 -0.000004 0.000001 -0.000001 -0.000002 0.000000 -0.000000 0.603486 -0.451429 0.113728 1.276135 -1.018727 -0.918999 1.278435 -1.016639 -0.918154 -3.909944 1.673041 -0.755794 -7.960285 7.572396 -1.496246 0.000001 0.000000 0.000000 0.000001 0.000000 0.000000 0.000001 0.000000 0.000000 0.000001 0.000000 0.000000 0.000001 0.000000 0.000000 0.000001 0.000000 0.000000 0.000001 0.000000 0.000000 0.000001 0.000000 0.000000 0.000001 0.000000 0.000000 0.000001 0.000000 0.000000 0.000001 0.000000 0.000000 0.000001 0.000000 0.000000 0.000001 0.000000 0.000000 0.000001 0.000000 0.000000 0.000001 0.000000 0.000000 0.000001 0.000000 0.000000 0.000001 0.000000 0.000000 0.000001 0.000000 0.000000 0.000001 0.000000 0.000000 0.039476 4.456464 -3.348968 -59.308609 -48.121186 -89.167218 0.000330 -99.399531 0.000315 32.005327 -40.115101 5.419631 -1.510254 3.690280 6.142340 3.939056 7.948690 0.746802 0.000001 -0.000000 0.000001 -0.000002 0.000000 -0.000029 -0.000002 -0.000006 -0.000006 0.000002 -0.000000 0.000001 -0.000000 -0.001925 0.015942 0.000001 0.001933 -0.015987 0.000000 0.000002 -0.000001 0.000003 0.000008 -0.000047 0.000003 0.000009 0.000003 0.000001 -0.000001 0.000004 -0.018096 4.054253 0.511025 -0.018100 -4.054237 -0.511066 -0.000000 0.000000 -0.000000 0.000001 0.000002 0.000002 0.415927 -3.288747 6.675627 7.596393 -17.110589 56.723468 -0.000001 13.340013 -0.000010 17.398829 -38.577817 -1.820657 -1.741170 -3.581793 -6.586133 4.637198 -8.634133 -0.225407 -0.000001 0.000001 -0.000004 0.000011 -0.000008 0.000006 -0.000006 0.000002 -0.000003 -0.000003 -0.000001 -0.000001 0.000001 0.000001 -0.000006 -0.000007 0.000000 -0.000006 0.000000 0.000002 0.000002 0.000004 -0.000000 -0.000005 0.000003 -0.000005 0.000009 -0.000001 0.000000 -0.000001 0.000002 0.000004 -0.000004 -0.000002 0.000004 0.000087 0.000002 0.000001 -0.000001 0.000002 -0.000002 -0.000002 -0.000000 0.000000 -0.000000 -0.000000 0.000000 -0.000000 -0.000000 0.000000 -0.000000 -0.000000 0.000000 -0.000000 -0.000000 0.000000 -0.000000 -0.000000 0.000000 -0.000000 -0.000002 0.000000 -0.000000 -0.000002 0.000000 -0.000000 0.000000 -0.000000 0.000000 -0.000001 -0.000000 0.000000 
